<svg width="55" height="54" viewBox="0 0 55 54" fill="none" xmlns="http://www.w3.org/2000/svg">
<rect x="1.5" y="1.5" width="52" height="51" rx="25.5" stroke="url(#paint0_linear_60_1083)" stroke-width="3"/>
<path d="M27.4998 28.75L39.6242 19.25H15.3755L27.4998 28.75Z" fill="url(#paint1_linear_60_1083)"/>
<path d="M14.5098 36.25H40.4905L33.9953 31.75L30.7477 29.5L29.9358 28.9375L27.5 31.25L25.0645 28.9375L24.2526 29.5L21.005 31.75L14.5098 36.25Z" fill="url(#paint2_linear_60_1083)"/>
<path d="M31 28.2224L40.5 35.25V19.25L31 28.2224Z" fill="url(#paint3_linear_60_1083)"/>
<path d="M24 28.2224L14.5 35.25L14.5 19.25L24 28.2224Z" fill="url(#paint4_linear_60_1083)"/>
<defs>
<linearGradient id="paint0_linear_60_1083" x1="1.14118" y1="62.4961" x2="62.2911" y2="54.2826" gradientUnits="userSpaceOnUse">
<stop stop-color="#D9B077"/>
<stop offset="0.48" stop-color="#F1E1B5"/>
<stop offset="1" stop-color="#D9B077"/>
</linearGradient>
<linearGradient id="paint1_linear_60_1083" x1="15.8786" y1="17.7553" x2="40.5318" y2="26.0539" gradientUnits="userSpaceOnUse">
<stop stop-color="#D9B077"/>
<stop offset="0.48" stop-color="#F1E1B5"/>
<stop offset="1" stop-color="#D9B077"/>
</linearGradient>
<linearGradient id="paint2_linear_60_1083" x1="15.0488" y1="37.4005" x2="39.1621" y2="26.1024" gradientUnits="userSpaceOnUse">
<stop stop-color="#D9B077"/>
<stop offset="0.48" stop-color="#F1E1B5"/>
<stop offset="1" stop-color="#D9B077"/>
</linearGradient>
<linearGradient id="paint3_linear_60_1083" x1="41.9947" y1="19.582" x2="38.1614" y2="36.8406" gradientUnits="userSpaceOnUse">
<stop stop-color="#D9B077"/>
<stop offset="0.48" stop-color="#F1E1B5"/>
<stop offset="1" stop-color="#D9B077"/>
</linearGradient>
<linearGradient id="paint4_linear_60_1083" x1="13.0053" y1="19.582" x2="16.8386" y2="36.8406" gradientUnits="userSpaceOnUse">
<stop stop-color="#D9B077"/>
<stop offset="0.48" stop-color="#F1E1B5"/>
<stop offset="1" stop-color="#D9B077"/>
</linearGradient>
</defs>
</svg>
