<svg width="54" height="54" viewBox="0 0 54 54" fill="none" xmlns="http://www.w3.org/2000/svg">
<g clip-path="url(#clip0_59_1044)">
<path d="M8.97073 8.9688L8.97117 8.96835C13.7479 4.18845 20.2385 1.5 27 1.5C33.7615 1.5 40.2521 4.18845 45.0288 8.96835L45.0293 8.9688C49.8105 13.7492 52.5 20.24 52.5 27C52.5 33.76 49.8105 40.2508 45.0293 45.0312L45.0288 45.0316C40.2521 49.8116 33.7615 52.5 27 52.5C20.2385 52.5 13.7479 49.8116 8.97117 45.0316L8.97073 45.0312C4.1895 40.2508 1.5 33.76 1.5 27C1.5 20.24 4.1895 13.7492 8.97073 8.9688Z" stroke="url(#paint0_linear_59_1044)" stroke-width="3"/>
<path d="M15.5809 26.1794C21.7561 23.4983 25.8729 21.7306 27.9313 20.8766C33.8152 18.438 35.0364 18.0145 35.8339 18.0001C36.0093 17.9973 36.3998 18.0405 36.6546 18.246C36.8664 18.4192 36.926 18.6534 36.9558 18.8177C36.9822 18.9819 37.0186 19.3563 36.9888 19.6486C36.6712 22.9867 35.2912 31.0874 34.5896 34.8263C34.2951 36.4084 33.7093 36.9388 33.1434 36.9906C31.9124 37.1034 30.9791 36.1805 29.7878 35.4023C27.9246 34.1841 26.8723 33.4261 25.0621 32.2376C22.9706 30.8641 24.3274 30.109 25.5188 28.8754C25.8298 28.5524 31.2505 23.6392 31.3531 23.1936C31.3663 23.1378 31.3796 22.93 31.2538 22.8205C31.1314 22.7106 30.9494 22.7482 30.817 22.7779C30.6283 22.8202 27.6533 24.7821 21.8818 28.6636C21.038 29.2422 20.2735 29.5242 19.5852 29.5093C18.8306 29.4932 17.3745 29.0832 16.2924 28.7329C14.9687 28.303 13.913 28.0758 14.0057 27.3458C14.052 26.9658 14.5782 26.5769 15.5809 26.1794Z" fill="url(#paint1_linear_59_1044)"/>
</g>
<defs>
<linearGradient id="paint0_linear_59_1044" x1="1.12043" y1="62.4961" x2="61.1969" y2="54.5735" gradientUnits="userSpaceOnUse">
<stop stop-color="#D9B077"/>
<stop offset="0.48" stop-color="#F1E1B5"/>
<stop offset="1" stop-color="#D9B077"/>
</linearGradient>
<linearGradient id="paint1_linear_59_1044" x1="14.4772" y1="39.9894" x2="39.8634" y2="35.9368" gradientUnits="userSpaceOnUse">
<stop stop-color="#D9B077"/>
<stop offset="0.48" stop-color="#F1E1B5"/>
<stop offset="1" stop-color="#D9B077"/>
</linearGradient>
<clipPath id="clip0_59_1044">
<rect width="54" height="54" fill="white"/>
</clipPath>
</defs>
</svg>
