<svg width="54" height="54" viewBox="0 0 54 54" fill="none" xmlns="http://www.w3.org/2000/svg">
<circle cx="27" cy="27" r="25.5" stroke="url(#paint0_linear_59_1037)" stroke-width="3"/>
<mask id="path-2-inside-1_59_1037" fill="white">
<path d="M14 39L15.837 32.3207C14.2771 29.6233 13.7503 26.4549 14.3538 23.4008C14.9573 20.3467 16.6504 17.6133 19.1204 15.7053C21.5903 13.7974 24.6703 12.8439 27.7913 13.0209C30.9124 13.1979 33.8636 14.4935 36.1 16.6684C38.3364 18.8432 39.7068 21.7505 39.9581 24.853C40.2094 27.9556 39.3246 31.0439 37.4672 33.5475C35.6097 36.0511 32.9051 37.8009 29.8529 38.4736C26.8007 39.1464 23.6071 38.6966 20.862 37.2075M17.1093 35.9413L21.1836 34.8743C23.4259 36.324 26.13 36.8913 28.7694 36.4658C31.4089 36.0404 33.7947 34.6526 35.4625 32.5727C37.1302 30.4929 37.9604 27.8698 37.7914 25.2142C37.6225 22.5586 36.4664 20.0607 34.5484 18.2068C32.6304 16.3529 30.0876 15.2756 27.4153 15.1849C24.743 15.0941 22.1324 15.9964 20.0919 17.7159C18.0513 19.4354 16.7268 21.8491 16.3763 24.487C16.0259 27.1249 16.6744 29.7982 18.1958 31.9864M24.8434 22.9526C24.9863 23.3083 24.8434 23.6639 24.0571 24.5317C23.6282 24.9585 23.7712 25.1008 24.5289 26.1678C25.2865 27.2347 26.5303 28.2306 27.6739 28.7641C28.8176 29.2976 28.7461 29.262 29.225 28.693C30.2972 27.4837 30.0113 27.1992 31.0835 27.6829L33.0134 28.6076C33.5853 28.8921 33.6138 28.8921 33.621 29.2478C33.6281 29.6034 33.4995 30.5282 33.1206 30.9265C32.7418 31.3248 31.3337 32.6906 28.8319 31.7801C26.3301 30.8696 24.6146 30.1441 21.7555 26.3029C18.8963 22.4618 21.6411 20.1856 22.0128 20.0433C22.3845 19.901 22.5132 19.9366 23.2279 19.9508C23.4186 19.9508 23.5853 20.0694 23.7283 20.3065"/>
</mask>
<path d="M14 39L15.837 32.3207C14.2771 29.6233 13.7503 26.4549 14.3538 23.4008C14.9573 20.3467 16.6504 17.6133 19.1204 15.7053C21.5903 13.7974 24.6703 12.8439 27.7913 13.0209C30.9124 13.1979 33.8636 14.4935 36.1 16.6684C38.3364 18.8432 39.7068 21.7505 39.9581 24.853C40.2094 27.9556 39.3246 31.0439 37.4672 33.5475C35.6097 36.0511 32.9051 37.8009 29.8529 38.4736C26.8007 39.1464 23.6071 38.6966 20.862 37.2075M17.1093 35.9413L21.1836 34.8743C23.4259 36.324 26.13 36.8913 28.7694 36.4658C31.4089 36.0404 33.7947 34.6526 35.4625 32.5727C37.1302 30.4929 37.9604 27.8698 37.7914 25.2142C37.6225 22.5586 36.4664 20.0607 34.5484 18.2068C32.6304 16.3529 30.0876 15.2756 27.4153 15.1849C24.743 15.0941 22.1324 15.9964 20.0919 17.7159C18.0513 19.4354 16.7268 21.8491 16.3763 24.487C16.0259 27.1249 16.6744 29.7982 18.1958 31.9864M24.8434 22.9526C24.9863 23.3083 24.8434 23.6639 24.0571 24.5317C23.6282 24.9585 23.7712 25.1008 24.5289 26.1678C25.2865 27.2347 26.5303 28.2306 27.6739 28.7641C28.8176 29.2976 28.7461 29.262 29.225 28.693C30.2972 27.4837 30.0113 27.1992 31.0835 27.6829L33.0134 28.6076C33.5853 28.8921 33.6138 28.8921 33.621 29.2478C33.6281 29.6034 33.4995 30.5282 33.1206 30.9265C32.7418 31.3248 31.3337 32.6906 28.8319 31.7801C26.3301 30.8696 24.6146 30.1441 21.7555 26.3029C18.8963 22.4618 21.6411 20.1856 22.0128 20.0433C22.3845 19.901 22.5132 19.9366 23.2279 19.9508C23.4186 19.9508 23.5853 20.0694 23.7283 20.3065" fill="url(#paint1_linear_59_1037)"/>
<path d="M15.837 32.3207L16.8012 32.5859L16.9122 32.1824L16.7027 31.8201L15.837 32.3207ZM21.1836 34.8743L21.7266 34.0346L21.3566 33.7953L20.9303 33.907L21.1836 34.8743ZM24.0571 24.5317L24.7625 25.2406L24.7808 25.2223L24.7982 25.2032L24.0571 24.5317ZM29.225 28.693L28.4768 28.0295L28.4682 28.0392L28.4599 28.0491L29.225 28.693ZM31.0835 27.6829L31.5156 26.7811L31.5052 26.7761L31.4947 26.7713L31.0835 27.6829ZM33.0134 28.6076L33.4589 27.7123L33.4522 27.709L33.4455 27.7058L33.0134 28.6076ZM23.2279 19.9508L23.208 20.9506L23.218 20.9508H23.2279V19.9508ZM14.9642 39.2652L16.8012 32.5859L14.8728 32.0555L13.0358 38.7348L14.9642 39.2652ZM16.7027 31.8201C15.264 29.3323 14.7784 26.4107 15.3348 23.5947L13.3728 23.2069C12.7222 26.4991 13.2902 29.9142 14.9713 32.8213L16.7027 31.8201ZM15.3348 23.5947C15.8913 20.7786 17.4527 18.2572 19.7317 16.4967L18.5091 14.9139C15.8482 16.9694 14.0233 19.9148 13.3728 23.2069L15.3348 23.5947ZM19.7317 16.4967C22.0108 14.7362 24.8535 13.8559 27.7347 14.0193L27.8479 12.0225C24.487 11.8319 21.1698 12.8586 18.5091 14.9139L19.7317 16.4967ZM27.7347 14.0193C30.6158 14.1827 33.3395 15.3787 35.4028 17.3853L36.7972 15.9515C34.3877 13.6083 31.2089 12.2131 27.8479 12.0225L27.7347 14.0193ZM35.4028 17.3853C37.4661 19.3918 38.7296 22.0731 38.9614 24.9338L40.9548 24.7723C40.6839 21.4278 39.2067 18.2947 36.7972 15.9515L35.4028 17.3853ZM38.9614 24.9338C39.1931 27.7944 38.3773 30.6424 36.6641 32.9517L38.2703 34.1433C40.2719 31.4454 41.2257 28.1168 40.9548 24.7723L38.9614 24.9338ZM36.6641 32.9517C34.9507 35.2611 32.4551 36.8761 29.6377 37.4971L30.0682 39.4502C33.3551 38.7257 36.2688 36.8411 38.2703 34.1433L36.6641 32.9517ZM29.6377 37.4971C26.8202 38.1181 23.8723 37.7028 21.3388 36.3285L20.3852 38.0865C23.3419 39.6904 26.7812 40.1747 30.0682 39.4502L29.6377 37.4971ZM17.3627 36.9087L21.437 35.8417L20.9303 33.907L16.856 34.9739L17.3627 36.9087ZM20.6407 35.7141C23.091 37.2982 26.0452 37.9179 28.9285 37.4531L28.6103 35.4786C26.2147 35.8647 23.7608 35.3497 21.7266 34.0346L20.6407 35.7141ZM28.9285 37.4531C31.8119 36.9883 34.4194 35.4721 36.2426 33.1983L34.6823 31.9472C33.1701 33.8331 31.0058 35.0924 28.6103 35.4786L28.9285 37.4531ZM36.2426 33.1983C38.066 30.9243 38.9743 28.0556 38.7894 25.1507L36.7935 25.2777C36.9466 27.6839 36.1944 30.0614 34.6823 31.9472L36.2426 33.1983ZM38.7894 25.1507C38.6046 22.2458 37.34 19.5143 35.2434 17.4878L33.8534 18.9258C35.5928 20.6071 36.6403 22.8715 36.7935 25.2777L38.7894 25.1507ZM35.2434 17.4878C33.1468 15.4613 30.3684 14.2846 27.4493 14.1855L27.3814 16.1843C29.8069 16.2667 32.1139 17.2444 33.8534 18.9258L35.2434 17.4878ZM27.4493 14.1855C24.5302 14.0863 21.6778 15.0718 19.4475 16.9512L20.7363 18.4806C22.5871 16.9209 24.9559 16.102 27.3814 16.1843L27.4493 14.1855ZM19.4475 16.9512C17.2171 18.8306 15.7684 21.4698 15.3851 24.3553L17.3676 24.6187C17.6852 22.2283 18.8855 20.0401 20.7363 18.4806L19.4475 16.9512ZM15.3851 24.3553C15.0017 27.2408 15.7113 30.1646 17.3748 32.5572L19.0169 31.4155C17.6376 29.4318 17.05 27.009 17.3676 24.6187L15.3851 24.3553ZM23.9155 23.3255C23.9053 23.3002 23.8889 23.2421 23.8931 23.1698C23.8968 23.1051 23.9143 23.0818 23.8973 23.1172C23.8783 23.1567 23.8331 23.2349 23.7342 23.3656C23.6368 23.4944 23.5017 23.6554 23.316 23.8603L24.7982 25.2032C25.196 24.7641 25.516 24.3663 25.7001 23.983C25.9217 23.5216 25.9605 23.0505 25.7712 22.5796L23.9155 23.3255ZM23.3517 23.8229C23.2261 23.9479 23.0264 24.1595 22.9115 24.4544C22.7732 24.8096 22.804 25.1503 22.9029 25.4364C22.9862 25.6774 23.1249 25.8992 23.2429 26.0763C23.3671 26.2629 23.533 26.4926 23.7135 26.7468L25.3442 25.5888C25.1459 25.3095 25.0098 25.1213 24.9075 24.9677C24.799 24.8048 24.7867 24.7643 24.7932 24.783C24.8001 24.8032 24.8167 24.8589 24.818 24.9399C24.8194 25.026 24.8029 25.1091 24.7751 25.1803C24.7304 25.2952 24.6737 25.3289 24.7625 25.2406L23.3517 23.8229ZM23.7135 26.7468C24.5786 27.9649 25.9619 29.0689 27.2512 29.6703L28.0967 27.8578C27.0986 27.3923 25.9945 26.5046 25.3442 25.5888L23.7135 26.7468ZM27.2512 29.6703C27.5242 29.7977 27.7695 29.9126 27.9692 29.9902C28.1507 30.0607 28.4417 30.1631 28.7707 30.1394C29.1767 30.1101 29.4562 29.9104 29.6323 29.7422C29.7631 29.6172 29.9109 29.431 29.9901 29.3369L28.4599 28.0491C28.4275 28.0876 28.3975 28.1237 28.3719 28.1546C28.3453 28.1866 28.3242 28.212 28.305 28.2346C28.264 28.2831 28.2505 28.2962 28.2506 28.2962C28.2526 28.2942 28.2913 28.2569 28.363 28.2195C28.4437 28.1775 28.5353 28.1512 28.6268 28.1446C28.709 28.1386 28.7619 28.1508 28.7674 28.152C28.7714 28.153 28.7515 28.1484 28.6936 28.126C28.5701 28.078 28.3955 27.9973 28.0967 27.8578L27.2512 29.6703ZM29.9733 29.3564C30.2704 29.0213 30.474 28.7491 30.6193 28.5538C30.6952 28.4519 30.7403 28.3911 30.7786 28.3439C30.8172 28.2961 30.8172 28.3026 30.7898 28.3251C30.753 28.3554 30.6753 28.4082 30.5612 28.4382C30.4498 28.4675 30.3646 28.459 30.334 28.4541C30.3115 28.4505 30.3226 28.4495 30.3902 28.4747C30.4552 28.499 30.5437 28.5364 30.6723 28.5944L31.4947 26.7713C31.2469 26.6596 30.9434 26.526 30.6491 26.4791C30.4778 26.4518 30.2731 26.446 30.0528 26.5039C29.8298 26.5625 29.6538 26.6698 29.5187 26.781C29.3023 26.9592 29.1186 27.2204 29.0146 27.3601C28.8785 27.5431 28.7158 27.76 28.4768 28.0295L29.9733 29.3564ZM30.6514 28.5847L32.5813 29.5094L33.4455 27.7058L31.5156 26.7811L30.6514 28.5847ZM32.568 29.5029C32.6432 29.5403 32.7011 29.5689 32.7541 29.5956C32.8064 29.6219 32.8421 29.6404 32.8683 29.6547C32.8949 29.6693 32.9002 29.6734 32.894 29.6692C32.8874 29.6647 32.8576 29.6441 32.8196 29.6059C32.7787 29.5647 32.7343 29.5091 32.6964 29.439C32.6592 29.37 32.6395 29.3076 32.6293 29.2635C32.62 29.2233 32.6187 29.1987 32.6191 29.2043C32.6195 29.2104 32.6204 29.2267 32.6212 29.2679L34.6208 29.2277C34.6181 29.0944 34.6359 28.5963 34.2383 28.1961C34.0921 28.0491 33.9284 27.9551 33.8289 27.9006C33.7233 27.8427 33.5881 27.7766 33.4589 27.7123L32.568 29.5029ZM32.6212 29.2679C32.6228 29.3473 32.6052 29.5811 32.5435 29.8363C32.5141 29.9583 32.4796 30.0632 32.4443 30.1435C32.4065 30.2295 32.3838 30.2502 32.396 30.2374L33.8453 31.6157C34.223 31.2185 34.3993 30.6713 34.4876 30.306C34.5832 29.9103 34.6263 29.5039 34.6208 29.2277L32.6212 29.2679ZM32.396 30.2374C32.2475 30.3936 31.9214 30.7128 31.4094 30.9123C30.9215 31.1024 30.1946 31.2119 29.1739 30.8404L28.4899 32.7198C29.9709 33.2588 31.199 33.1407 32.1354 32.7759C33.0475 32.4205 33.615 31.8578 33.8453 31.6157L32.396 30.2374ZM29.1739 30.8404C27.9295 30.3875 26.9855 30.0157 26.0042 29.3234C25.021 28.6298 23.95 27.5764 22.5576 25.7058L20.9533 26.9C22.4201 28.8706 23.6364 30.1005 24.8512 30.9576C26.0679 31.816 27.2326 32.2622 28.4899 32.7198L29.1739 30.8404ZM22.5576 25.7058C21.298 24.0135 21.3661 22.8281 21.6159 22.1178C21.7518 21.7316 21.9625 21.4256 22.156 21.2114C22.2523 21.1047 22.3386 21.0271 22.3994 20.9789C22.486 20.9102 22.4718 20.9384 22.3703 20.9772L21.6553 19.1094C21.4609 19.1838 21.2796 19.3143 21.1561 19.4122C21.0068 19.5307 20.8401 19.6844 20.6715 19.8711C20.3351 20.2436 19.9686 20.7735 19.7292 21.4542C19.2285 22.8779 19.3538 24.7512 20.9533 26.9L22.5576 25.7058ZM22.3703 20.9772C22.4323 20.9535 22.46 20.9465 22.4718 20.9439C22.4807 20.942 22.4956 20.9391 22.534 20.9375C22.5805 20.9355 22.6451 20.9358 22.7625 20.9389C22.8704 20.9418 23.0259 20.947 23.208 20.9506L23.2478 18.951C22.9498 18.9451 22.658 18.9304 22.4494 18.9393C22.1597 18.9515 21.9282 19.0049 21.6553 19.1094L22.3703 20.9772ZM23.2279 20.9508C23.1001 20.9508 22.9893 20.9065 22.9166 20.8548C22.8561 20.8118 22.8477 20.7827 22.8719 20.8228L24.5847 19.7901C24.3502 19.4013 23.9132 18.9508 23.2279 18.9508V20.9508Z" fill="url(#paint2_linear_59_1037)" mask="url(#path-2-inside-1_59_1037)"/>
<defs>
<linearGradient id="paint0_linear_59_1037" x1="1.12043" y1="62.4961" x2="61.1969" y2="54.5735" gradientUnits="userSpaceOnUse">
<stop stop-color="#D9B077"/>
<stop offset="0.48" stop-color="#F1E1B5"/>
<stop offset="1" stop-color="#D9B077"/>
</linearGradient>
<linearGradient id="paint1_linear_59_1037" x1="14.5395" y1="43.0907" x2="43.4652" y2="39.2761" gradientUnits="userSpaceOnUse">
<stop stop-color="#D9B077"/>
<stop offset="0.48" stop-color="#F1E1B5"/>
<stop offset="1" stop-color="#D9B077"/>
</linearGradient>
<linearGradient id="paint2_linear_59_1037" x1="14.5395" y1="43.0907" x2="43.4652" y2="39.2761" gradientUnits="userSpaceOnUse">
<stop stop-color="#D9B077"/>
<stop offset="0.48" stop-color="#F1E1B5"/>
<stop offset="1" stop-color="#D9B077"/>
</linearGradient>
</defs>
</svg>
